<svg xmlns="http://www.w3.org/2000/svg" xmlns:xlink="http://www.w3.org/1999/xlink" width="12.078" height="18.059" viewBox="0 0 12.078 18.059">
  <defs>
    <clipPath id="clip-path">
      <rect width="12.078" height="18.059" fill="none"/>
    </clipPath>
  </defs>
  <g id="Component_1_1" data-name="Component 1 – 1" clip-path="url(#clip-path)">
    <g id="surface1" transform="translate(0)">
      <path id="Path_1" data-name="Path 1" d="M3.172,18.059c-2.007-6.615,2.234-9.03,2.234-9.03a10.229,10.229,0,0,0,1.709,6.28,10.794,10.794,0,0,0,2.146-1.263,22.918,22.918,0,0,1-.743,4.012,10.612,10.612,0,0,0,3.42-5.351c.818-3.34-1.558-6.694-1.558-6.694a8.957,8.957,0,0,1-2.224,6.466,1.282,1.282,0,0,0,.195-.3c.282-.563.734-2.026.469-5.415A8.653,8.653,0,0,0,4.138,0C4.509,2.9,3.4,3.566.786,9.067S3.172,18.059,3.172,18.059Zm0,0" transform="translate(-0.031)" fill="#cd132b"/>
    </g>
  </g>
</svg>
