<svg xmlns="http://www.w3.org/2000/svg" xmlns:xlink="http://www.w3.org/1999/xlink" width="13.377" height="20" viewBox="0 0 13.377 20">
  <defs>
    <clipPath id="clip-path">
      <rect width="13.377" height="20" fill="none"/>
    </clipPath>
  </defs>
  <g id="Component_1_2" data-name="Component 1 – 2" clip-path="url(#clip-path)">
    <g id="surface1" transform="translate(0)">
      <path id="Path_1" data-name="Path 1" d="M3.51,20C1.286,12.674,5.984,10,5.984,10a11.328,11.328,0,0,0,1.893,6.955,11.954,11.954,0,0,0,2.377-1.4A25.381,25.381,0,0,1,9.431,20a11.752,11.752,0,0,0,3.787-5.927c.906-3.7-1.725-7.413-1.725-7.413A9.92,9.92,0,0,1,9.03,13.819a1.419,1.419,0,0,0,.216-.332c.312-.624.812-2.244.519-6A9.584,9.584,0,0,0,4.579,0C4.99,3.21,3.757,3.949.867,10.042S3.51,20,3.51,20Zm0,0" transform="translate(-0.031)" fill="#fff"/>
    </g>
  </g>
</svg>
